PathFileType	4	(X/Y/Z)	G:\TennisProject\Miami_Dimitrov_Sinner_masked_Sports2D\Miami_Dimitrov_Sinner_masked_Sports2D_px_person00.trc
DataRate	CameraRate	NumFrames	NumMarkers	Units	OrigDataRate	OrigDataStartFrame	OrigNumFrames
25	25	6	22	m	25	436	499
Frame#	Time	Hip			RHip			RKnee			RAnkle			RBigToe			RSmallToe			RHeel			LHip			LKnee			LAnkle			LBigToe			LSmallToe			LHeel			Neck			Head			Nose			RShoulder			RElbow			RWrist			LShoulder			LElbow			LWrist		
		X1	Y1	Z1	X2	Y2	Z2	X3	Y3	Z3	X4	Y4	Z4	X5	Y5	Z5	X6	Y6	Z6	X7	Y7	Z7	X8	Y8	Z8	X9	Y9	Z9	X10	Y10	Z10	X11	Y11	Z11	X12	Y12	Z12	X13	Y13	Z13	X14	Y14	Z14	X15	Y15	Z15	X16	Y16	Z16	X17	Y17	Z17	X18	Y18	Z18	X19	Y19	Z19	X20	Y20	Z20	X21	Y21	Z21	X22	Y22	Z22
436	17.44	958.0981041469056	243.45620289035807	0.0	951.676256462515	244.8742960098532	0.0	951.9671421307187	268.0525589585472	0.0	954.1747480374295	291.77171077463487	0.0	955.0655614730126	298.5802250532381	0.0	951.409142621944	298.5030530532498	0.0	955.8654865040555	295.15654564996987	0.0	965.4148289971855	243.29609593179526	0.0	972.2695197124399	268.1952079081849	0.0	984.1315079350106	287.91063331353325	0.0	988.4265475329537	296.0339215834971	0.0	990.9544170773263	294.19539317706955	0.0	984.3800567864877	291.53360309592324	0.0	953.3687506604041	211.6207718222045	0.0	952.0477617057118	193.2426862955998	0.0	952.6790485400727	204.3360125759487	0.0	942.7222321836691	216.56560952746318	0.0	937.3046908928427	231.01138427303079	0.0	944.1790111720125	241.27198941995925	0.0	964.406326931299	213.4204690576584	0.0	970.4420558301861	226.7512874230889	0.0	968.8859975152445	237.09401444958473	0.0
437	17.48	965.4849525166286	245.38626317946245	0.0	958.6559537707051	246.33597763807225	0.0	956.1335123558167	268.67257427484896	0.0	957.0391785125772	292.8728130467576	0.0	955.7635649738945	298.8488593315528	0.0	952.9795980139663	298.74136868795944	0.0	958.7784561024104	296.471806443981	0.0	973.0630421725456	245.11191028225053	0.0	982.9691550040118	269.44765489477277	0.0	998.6116007982303	289.33979441825403	0.0	1004.621255654863	297.6810031682695	0.0	1006.9896846144043	295.78914865533403	0.0	999.8275615944256	293.05408378591284	0.0	961.4013252316759	215.43614589219027	0.0	959.8532002539217	196.44070048739854	0.0	960.7093032352652	207.86637856654687	0.0	950.7495817122722	220.01189126495862	0.0	945.2048387274624	235.0260585750981	0.0	952.7484160905344	243.8308649359608	0.0	972.291075107745	216.86375600343817	0.0	977.2713248272223	231.46479909767226	0.0	974.5492991129206	241.59495151578778	0.0
438	17.52	973.4117592200637	246.81312203223587	0.0	966.3637948327831	247.39449030791664	0.0	959.2466379874652	268.09513380732653	0.0	957.9535603856757	293.0399449928383	0.0	955.3393293678847	298.90373100636344	0.0	953.0086482495935	298.82452468096636	0.0	959.3008148951419	296.85943361417515	0.0	980.8776383548961	246.70696690573305	0.0	993.4344258866699	269.95503993627483	0.0	1010.3730630060736	290.0093624141994	0.0	1017.8726549744293	298.8139880203434	0.0	1020.29047583739	297.0715859029978	0.0	1012.0264589848277	293.97707684205324	0.0	970.2180126955526	218.44979894663902	0.0	968.6488193704769	199.19657336963832	0.0	969.4941502324741	210.79541679731187	0.0	959.4662047249927	222.76633317903506	0.0	954.0606953795148	238.03350602117771	0.0	961.9343833906624	245.47799768259537	0.0	981.002374154022	220.11057836495135	0.0	985.0275630734271	234.73506895497982	0.0	980.7528943673734	244.4016900507258	0.0
439	17.56	982.1745849503882	248.13649806243467	0.0	974.950914943184	248.68484129404112	0.0	963.6034898859596	268.52333775895386	0.0	958.2191811269238	293.3748004137435	0.0	954.5360108938037	299.34301347829313	0.0	952.2609625268094	299.0159084346137	0.0	958.867845988667	297.2567504270712	0.0	989.4605518117667	248.38288185031683	0.0	1004.0492933410037	270.2997494485144	0.0	1019.8410831976842	291.32015216146976	0.0	1027.6413224139244	300.03149016965904	0.0	1030.0507311842202	298.3043183709418	0.0	1021.1398248010709	295.49586013134626	0.0	980.1865126576341	219.66509513026514	0.0	978.9401232252933	201.25333724579124	0.0	979.7190836371893	212.33846196267655	0.0	969.3541464195678	224.291426276302	0.0	964.2085283345159	239.7925208528099	0.0	972.5846908094886	246.04401220262127	0.0	991.0398465803546	222.35702203223647	0.0	994.9312965395317	236.7845003102736	0.0	989.6669048001529	245.66094082114603	0.0
440	17.6	991.5553246342092	249.3332080128228	0.0	983.8013196894578	250.2272681649422	0.0	970.9696968227256	270.8592010088872	0.0	958.7106814144673	293.2933275158691	0.0	953.9174880330854	299.86230673254767	0.0	951.7821273678171	298.7163854496755	0.0	958.4748765922641	296.7727640205436	0.0	998.8168667176739	249.74712351886433	0.0	1014.4356240846125	270.2929862696517	0.0	1026.523472433737	293.90154246564714	0.0	1034.0151676475673	301.7992348116538	0.0	1036.0777677671856	299.9791895641016	0.0	1026.5888551667692	298.1142334536847	0.0	991.214954189295	219.8859812183936	0.0	990.0978791855661	202.45250530685044	0.0	991.1814898506253	212.78756301364933	0.0	980.2938494465108	225.15772595069106	0.0	975.1312169277907	240.9798453469615	0.0	985.2084301915186	246.50559216132825	0.0	1002.1277902106342	223.27084805138932	0.0	1006.412545009363	237.3959525294841	0.0	1001.8761521406725	245.67281111075107	0.0
441	17.64	1000.9096988461831	250.12464246032323	0.0	992.6203836158303	251.4326504333562	0.0	981.0776043246963	273.8198637729522	0.0	961.0381809065844	291.80070348337483	0.0	955.362249225165	299.5879730076536	0.0	953.6846593113188	297.4871124160753	0.0	959.8922000518937	294.3990239568226	0.0	1008.2662409752038	250.55404132759884	0.0	1023.3677862504285	269.9721644754442	0.0	1029.7378138872602	296.35137255551297	0.0	1037.3748369790155	303.1117815085201	0.0	1038.7767617933098	301.45590234771515	0.0	1028.2344699315508	300.3724023404504	0.0	1002.7222959625456	220.09641246526155	0.0	1001.456973903975	203.01924257221566	0.0	1002.8904573567062	212.9468467731611	0.0	991.867228534663	225.72684783179028	0.0	986.126809990833	241.82251041399462	0.0	997.4549207278487	247.30351478790882	0.0	1013.3755076473597	223.35892638803932	0.0	1017.1611247394665	236.6888116540265	0.0	1015.0695180456628	244.5606377388388	0.0
